<svg width="48" height="48" viewBox="0 0 48 48" fill="none" xmlns="http://www.w3.org/2000/svg">
  <path
    d="M43.7865 16.2293L35.8132 8.23213C35.6656 8.0839 35.4601 8 35.2455 8H12.7547C12.5398 8 12.3346 8.0839 12.1867 8.23213L4.21344 16.2293C3.94479 16.4989 3.92767 16.9156 4.17388 17.204L23.3927 39.7251C23.5409 39.899 23.7641 40 23.9999 40C24.2358 40 24.459 39.899 24.6072 39.7251L43.826 17.204C44.0722 16.9154 44.0554 16.4989 43.7865 16.2293ZM12.5017 10.0726L15.1513 15.9975H6.59468L12.5017 10.0726ZM30.5904 17.4786L23.9999 36.5307L17.4095 17.4786H30.5904ZM18.1147 15.9975L23.9999 9.94959L29.8852 15.9975H18.1147ZM25.6703 9.48142H34.0655L31.4221 15.3923L25.6703 9.48142ZM16.5778 15.3923L13.9344 9.48142H22.3299L16.5778 15.3923ZM15.7651 17.4786L22.1368 35.8983L6.41814 17.4786H15.7651ZM32.2348 17.4786H41.5818L25.8631 35.8983L32.2348 17.4786ZM32.8486 15.9975L35.4982 10.0726L41.4052 15.9975H32.8486Z"
    fill="#a78bfa" />
</svg>