<svg viewBox="0 0 300 74"
  fill="none"
  width="150" height="37" xmlns="http://www.w3.org/2000/svg"
  preserveAspectRatio="xMidYMid meet">
  <g clip-path="url(#clip0_1_2)">
    <mask id="mask0_1_2" style="mask-type:luminance" maskUnits="userSpaceOnUse" x="0" y="0"
      width="301" height="74">
      <path d="M300.14 0H0V73.8575H300.14V0Z" fill="white" />
    </mask>
    <g mask="url(#mask0_1_2)">
      <path
        d="M182.295 3.43723C184.576 3.46983 185.567 4.96622 185.271 7.1297C184.366 13.7285 176.94 20.2535 172.299 24.4485C172.44 26.6068 172.655 28.5802 173.949 30.392C174.725 31.4783 176.19 32.4474 177.561 32.5013C183.505 32.735 190.377 27.2542 194.679 23.4459C195.625 22.6079 196.242 21.0219 197.179 20.3592C198.275 19.5943 200.392 18.1977 201.778 18.5575C205.339 19.4823 204.632 24.6084 204.206 27.1242C211.245 28.6941 217.623 25.528 222.41 20.3918C212.769 11.8436 229.353 7.25031 225.304 19.7766C228.816 20.3737 229.256 19.5805 232.43 17.727C234.073 18.2711 229.172 28.9879 231.271 31.4677C231.585 31.8393 231.946 32.4726 232.823 32.5492C238.316 33.0277 246.292 26.6272 250.391 23.1237C252.005 21.306 252.875 19.9271 254.742 18.312C256.52 16.7736 260.742 16.202 261.839 18.6632C263.866 23.9778 254.213 23.6773 252.702 24.8802C250.862 26.3444 252.809 30.416 256.186 30.4164C263.013 30.4179 268.342 27.0221 273.333 22.9418C273.206 20.611 273.474 19.535 274.909 17.5656C276.393 15.5282 279.883 15.3129 279.937 18.4094C279.977 20.6813 277.849 22.7226 276.262 24.1931C277.734 26.4049 279.375 28.665 279.877 31.2822C283.533 29.8699 288.154 27.7681 291.612 25.838C293.208 24.9466 295.301 22.7018 297.05 22.7827C297.682 23.4337 297.488 23.0538 297.625 23.9763C296.528 26.6025 282.95 32.3701 280.083 33.5954C279.411 36.7614 278.402 39.4757 275.462 41.2652C272.943 42.7993 269.48 41.363 270.639 38.169C271.689 35.2803 275.377 33.5149 277.965 32.2365C277.15 29.338 275.794 27.446 274.179 24.9521C270.022 28.4965 265.304 31.3243 259.891 32.3304C255.067 33.2265 249.86 32.4176 250.131 26.2226C245.366 29.9874 238.19 35.5609 231.884 34.6655C227.051 32.4592 228.602 26.0934 229.869 22.043C227.396 22.2547 226.385 22.3141 224.046 21.548C219.132 27.255 211.149 31.4178 203.578 29.1136C199.851 34.1725 195.33 32.0895 194.803 26.2014C187.443 32.4686 172.604 41.8391 170.154 25.8431C164.909 30.711 160.25 32.5896 153.149 32.174C155.763 35.5813 157.699 39.7833 157.241 44.2568C156.929 49.4335 150.993 52.563 148.052 47.4259C144.94 41.9904 146.566 31.4889 147.752 25.6624C135.73 33.274 117.722 25.9527 105.017 23.4541C101.768 22.8008 98.377 21.7998 95.1017 22.749C91.1124 23.9055 89.5891 30.9173 93.9339 32.4172C95.184 31.7069 94.5611 30.896 95.8678 30.1327L96.5165 30.3948C97.3119 31.6704 96.2804 33.6154 95.3339 34.0809C89.3007 37.0486 87.2457 24.4889 92.0792 21.8556C95.4166 19.7585 98.7006 20.1588 102.468 20.7328C116.656 22.8947 135.013 32.0389 148.27 22.8609C148.885 20.1262 152.1 7.54495 156.572 10.4977C159.156 14.464 152.76 21.6187 150.187 24.2748L149.528 27.8526C155.983 33.8287 165.23 27.6668 170.312 22.8193C171.881 15.8378 175.591 6.82406 182.295 3.43723ZM153.671 47.2672C157.282 42.1978 152.992 34.1328 149.129 30.5496C148.607 34.6388 148.169 38.6452 148.78 42.7651C149.139 45.1867 150.421 49.501 153.671 47.2672ZM173.239 20.6888C176.053 18.0366 184.736 9.72727 183.036 5.74683L182.624 5.52879C178.198 7.76023 174.872 15.3459 173.101 19.9161C172.901 20.4319 172.911 20.2983 172.999 20.7634L173.239 20.6888ZM200.318 29.6468C200.805 29.1097 201.268 28.7856 201.379 28.1614L201.173 28.0077C198.99 26.3605 198.434 25.3823 197.744 22.7336C196.623 25.2118 196.329 30.7735 200.318 29.6468ZM277.554 18.0641C276.364 19.0361 275.678 19.9208 275.416 21.4918L275.626 21.7802L275.77 21.7837C276.561 20.8601 277.916 19.491 277.904 18.2606L277.554 18.0641ZM277.31 34.8576C275.444 35.9832 273.089 37.2105 272.474 39.4116C272.542 39.5739 272.642 39.852 272.737 39.9809C275.061 39.2934 276.987 37.5216 277.523 35.0867L277.31 34.8576ZM221.711 13.9371C221.355 15.7015 222.141 17.5051 223.612 18.519C224.033 16.202 224.439 14.5736 221.711 13.9371ZM201.94 25.8388L202.291 25.6545C202.558 23.6616 202.938 21.3865 200.842 20.466C199.284 22.8782 200.152 24.01 201.94 25.8388ZM151.642 19.5636C152.903 17.7164 155.156 14.6918 155.121 12.4463L154.951 12.2467C153.464 14.1104 151.763 16.9786 151.398 19.3641L151.642 19.5636ZM257.559 19.1323C255.657 20.1392 254.846 20.9186 253.402 22.5293C254.264 22.3156 255.158 22.0787 256.022 21.8894C257.465 21.4596 258.722 21.1516 259.764 19.9915L259.724 19.5695C258.924 19.071 258.545 19.1582 257.559 19.1323Z"
        fill="currentColor" />
      <path
        d="M15.1263 3.42543C18.7487 3.58336 18.6597 6.73763 17.6024 9.33717C15.2899 15.021 9.74178 20.4602 5.15147 24.3856C5.30681 27.9689 6.47029 32.7822 11.0641 32.5292C16.9303 32.2058 22.944 27.4401 27.2556 23.6619C28.3766 22.6798 29.3398 20.2178 30.6068 19.1728C34.6225 15.3078 36.6611 19.8634 37.7445 19.8889L38.4311 18.2975C39.1629 17.731 38.7562 17.8598 39.7027 17.9297C41.3977 19.269 39.3143 24.4956 41.1616 26.4768C45.0162 30.6112 53.5329 25.2291 56.8828 22.8692C55.9418 12.8949 70.0851 14.5964 59.8151 24.2116C61.2163 26.3098 62.9945 28.8265 63.4426 31.3066C67.9146 29.5226 72.2817 27.5308 76.411 25.0637C77.5199 24.4013 79.4144 22.6291 80.4916 22.6492C81.1918 23.1277 80.9194 22.8142 81.246 23.6922C80.9881 24.5699 81.0364 24.3153 80.2055 25.0153C74.4623 29.1419 70.0843 30.8069 63.7119 33.6158C62.9125 36.6369 62.1971 38.7257 59.6657 40.8271C57.2013 42.8731 53.0665 41.8906 54.1909 38.2499C55.0859 35.3526 59.0185 33.4598 61.6249 32.2184C60.7737 29.5199 59.2172 27.2951 57.7317 24.8885C51.9385 28.8052 39.9599 35.3361 38.296 23.8187C36.818 26.111 32.6831 31.7399 28.9343 30.2258C27.3236 29.5753 27.6069 28.0038 27.1436 26.6347C21.706 30.8049 9.25858 40.0599 4.17455 30.513C0.0748581 22.8146 7.76062 7.05465 15.1263 3.42543ZM15.5237 5.56651C11.671 7.50723 6.27319 16.6656 5.77165 20.7281L6.0355 20.6833C8.98304 18.1105 17.2847 9.83295 15.8671 5.75469L15.5237 5.56651ZM31.8799 27.8596C35.0675 25.9456 38.789 20.2123 32.9821 19.8194C31.225 21.4014 28.3477 25.4746 29.5838 27.8314C30.4994 28.3236 30.8815 28.1708 31.8799 27.8596ZM56.5628 39.9436C59.4166 38.906 59.8686 37.7715 61.2093 35.1169C61.0282 34.8289 61.1484 34.8942 60.9095 34.8352C59.5802 35.6272 55.525 37.8752 56.19 39.7774L56.5628 39.9436ZM59.339 21.6796C60.2097 20.723 61.3545 19.632 61.4965 18.3191L61.1347 18.0751C59.8994 19.0612 59.2402 19.8803 58.9307 21.5221L59.1294 21.7409L59.339 21.6796Z"
        fill="currentColor" />
      <path
        d="M163.688 58.2021C165.624 58.1714 169.788 57.9302 171.201 59.4718C172.73 61.1383 169.884 63.0735 169.833 64.1047C170.668 64.5569 170.816 64.6064 171.482 65.2578C171.895 66.2034 171.841 66.2906 171.722 67.3576C170.126 69.6075 166.063 69.7151 163.6 69.2139L163.416 68.8359C164.346 67.6322 164.072 59.9004 163.688 58.2021ZM169.201 66.9557C168.995 65.926 168.957 65.3525 168.312 64.5031C167.819 64.258 167.662 64.2147 167.225 63.8714C168.657 61.8922 170.615 59.3657 166.619 58.7623C166.569 61.1933 166.212 66.6823 166.99 68.6784L167.451 68.9388C168.477 68.5385 168.727 67.998 169.201 66.9557Z"
        fill="currentColor" />
      <path
        d="M226.466 58.1966L229.336 58.1793C229.351 59.7519 228.994 63.4432 229.469 64.6151L229.773 64.7177L230.614 63.7791L231.452 64.0915C232.004 65.5376 232.472 67.3565 233.283 68.5689C233.466 68.8435 233.464 68.8348 233.599 69.164C230.198 69.7545 230.059 68.1906 229.2 65.4567L229.331 69.2654L226.506 69.2674C226.785 66.0137 226.804 61.3996 226.466 58.1966Z"
        fill="currentColor" />
      <path
        d="M238.197 61.9075C240.576 61.6867 243.017 62.1401 243.337 64.9848C242.42 66.5429 239.984 64.6839 238.397 65.8919C238.177 67.5077 239.338 67.9662 240.656 68.2027C241.295 68.1422 241.715 68.0204 242.266 68.3253L242.072 68.6462C235.743 71.368 233.252 64.3762 238.197 61.9075ZM240.2 65.0426L240.624 64.8367C240.797 63.6133 240.315 62.7337 239.192 62.2301C238.576 63.0119 238.446 63.1003 238.175 64.0298C238.363 64.8131 238.162 64.4992 238.812 64.9938L240.2 65.0426Z"
        fill="currentColor" />
      <path
        d="M226.817 40.1447C229.608 40.0221 234.172 39.7656 232.98 43.9574C232.517 44.3668 232.232 44.5451 231.99 45.1187C234.298 47.7799 232.383 48.0133 233.486 49.7415L233.405 49.9944C230.583 49.3804 232.51 47.5304 229.727 44.9808L230.542 44.5152C232.514 43.6007 230.9 40.05 229.223 40.7375C227.943 42.7765 229.219 47.0606 228.556 49.9603C227.791 50.0428 228.171 50.0793 227.392 49.7328C226.346 48.1519 227.392 42.7038 226.817 40.1447Z"
        fill="currentColor" />
      <path
        d="M210.582 61.6989C215.324 62.2945 214.399 65.4075 214.293 69.2512C213.537 69.3093 212.389 69.2724 211.599 69.2728L211.592 64.6677C209.634 66.1421 208.291 67.4668 210.918 69.2033C209.175 69.2744 206.586 69.3066 206.773 66.775C207.65 65.2955 209.812 65.0606 211.489 64.0352C211.629 63.3552 211.554 63.5123 211.257 62.7404C209.077 61.493 208.769 63.9562 207.86 64.4666C207.376 63.6691 207.403 63.9723 207.487 63.1799C208.379 62.0061 209.219 61.9087 210.582 61.6989Z"
        fill="currentColor" />
      <path
        d="M200.479 59.0616L200.657 58.4562C201.698 57.9278 202.954 57.5908 203.592 58.7799C203.401 61.0416 203.368 62.696 203.463 64.9612C203.504 65.9174 203.707 68.4018 203.602 69.1828C199.258 69.9273 200.671 62.7293 200.863 59.854L200.479 59.0616Z"
        fill="currentColor" />
      <path
        d="M249.002 60.0108C249.506 60.5199 248.806 60.9474 249.371 61.6529L250.83 61.7354L251.085 62.0317C250.366 62.8578 250.115 61.9012 249.167 62.6198C249.18 64.2077 249.114 65.8565 249.179 67.4307C249.231 68.7299 249.446 68.3909 250.366 69.153L248.767 69.3514C245.12 68.8623 246.742 65.6118 246.447 63.0676C246.385 62.5274 245.938 62.43 245.516 62.197L245.485 61.9228C246.416 61.13 247.863 60.5431 249.002 60.0108Z"
        fill="currentColor" />
      <path
        d="M194.018 59.6053L193.299 58.4295C194.228 57.8119 196.425 58.1203 197.026 59.2565C197.698 60.5285 197.788 62.5097 198.793 63.4632L199.301 63.8796C198.702 65.2338 198.027 67.2068 197.489 68.6336C196.494 65.9689 195.517 63.3815 194.644 60.6727C194.278 60.7926 194.449 60.7694 194.135 60.7737L194.018 59.6053Z"
        fill="currentColor" />
      <path
        d="M217.769 61.7096C218.979 61.651 219.519 61.7972 220.686 61.9803C221.595 62.1229 222.011 61.7819 223.134 61.9445C223.566 62.4462 223.402 62.4631 223.381 63.3639C222.646 64.181 222.827 62.8819 221.243 63.2669C220.741 64.0545 220.863 64.7287 220.867 65.6943C220.882 66.8819 220.811 68.0915 220.758 69.2803C220.064 69.2851 219.366 69.276 218.672 69.2713C217.241 68.3536 218.271 66.8662 218.236 65.3274C218.205 63.9783 218.132 63.0182 217.769 61.7096Z"
        fill="currentColor" />
      <path
        d="M250.378 47.0405C250.375 45.7496 250.144 41.0129 250.692 40.1973L251.093 40.1596C251.16 40.3219 250.997 49.0092 250.953 49.866C248.702 47.3855 246.47 44.1153 244.356 41.9055L244.081 41.9966C244.007 41.8694 243.782 41.2243 243.716 41.0439L243.138 40.404C244.909 38.7155 249.578 45.8376 250.378 47.0405Z"
        fill="currentColor" />
      <path
        d="M174.733 61.7982C175.776 61.8112 176.872 61.8764 177.919 61.9208C178.502 62.9269 179.056 64.3801 179.515 65.4852L180.278 65.5886L178.335 69.6648L177.932 68.6627C176.692 66.1248 176.464 64.5612 174.733 61.7982Z"
        fill="currentColor" />
      <path
        d="M193.521 42.7218L194.765 39.3594C195.453 41.2789 197.905 48.4529 198.751 49.8408C198.152 50.0734 197.727 49.8982 197.085 49.7615C196.385 49.1639 196.133 48.2934 195.761 47.4141L195.501 46.8759C195.367 46.1134 194.519 43.9134 194.178 43.1909L193.521 42.7218Z"
        fill="currentColor" />
      <path
        d="M263.698 43.1961L265.085 39.3512C265.905 41.746 268.424 48.0208 268.867 49.8554C268.343 50.0935 267.999 49.9163 267.427 49.7627C266.624 49.1833 266.373 48.3716 266.081 47.3957L265.798 46.9773C265.693 46.3484 264.948 43.7249 264.483 43.3246L263.698 43.1961Z"
        fill="currentColor" />
      <path
        d="M236.799 50.073C236.284 50.0809 235.608 50.1756 235.146 49.9206C234.766 49.7108 235.341 42.4166 235.015 41.3111C234.896 40.9076 234.845 40.7367 234.974 40.3105C235.245 40.1647 236.444 40.1659 236.837 40.1498L237.374 40.4032L236.912 40.4668C236.721 41.6816 236.727 43.6168 236.938 44.8236L236.822 45.3654C236.803 46.1083 236.671 49.0158 236.833 49.538C236.914 49.9803 236.975 49.8122 236.799 50.073Z"
        fill="currentColor" />
      <path
        d="M203.909 40.1184L205.839 40.2414C205.829 43.1038 205.671 47.2759 205.93 49.9808C205.065 50.0373 204.876 50.0361 204.024 49.8853C204.098 47.7929 204.339 41.9181 203.909 40.1184Z"
        fill="currentColor" />
      <path
        d="M214.931 41.6038C215.465 40.472 215.83 39.9648 217.256 40.2245C217.416 40.7678 217.328 48.4482 217.367 49.7112L217.165 49.9819C216.39 49.7761 216.339 49.6601 215.733 49.0822C215.052 47.2484 215.894 43.73 215.478 41.8053L214.931 41.6038Z"
        fill="currentColor" />
      <path
        d="M163.601 40.5816C163.554 42.7549 164.427 49.7493 162.34 50.1563L161.791 49.7026C162.061 48.8124 161.827 41.9134 161.799 40.4999C162.51 40.0607 162.573 40.2162 163.55 40.1872L163.601 40.5816Z"
        fill="currentColor" />
      <path
        d="M182.651 40.1255L184.35 40.096C184.303 42.6087 184.142 47.0681 184.418 49.4083L184.61 49.9603C183.676 50.0153 183.442 50.0829 182.57 49.8201C182.715 46.5224 182.685 43.4188 182.651 40.1255Z"
        fill="currentColor" />
      <path
        d="M221.139 40.5171C220.403 42.4284 221.667 47.5296 220.713 49.6805C219.92 50.2168 220.351 50.0872 219.36 50.0353C219.184 48.2474 219.783 43.2495 219.326 41.1889C219.211 40.6751 219.184 41.2565 219.12 40.3608C219.606 40.1251 220.553 40.2013 221.156 40.1946L221.139 40.5171Z"
        fill="currentColor" />
      <path
        d="M163.551 40.1871C169.854 39.2376 172.511 47.8357 165.606 49.9061L165.336 49.6821L165.138 49.9175L165.362 49.9497L165.191 49.8031C166.525 48.7884 168.023 47.6094 168.117 45.8364C168.297 42.4174 166.648 40.8259 163.601 40.5816L163.551 40.1871Z"
        fill="currentColor" />
      <path
        d="M256.096 40.4779C256.661 40.3506 257.414 40.2508 257.972 40.4767C257.631 41.178 257.867 48.4329 257.778 49.9289C256.998 50.0542 257.387 50.0785 256.583 49.743C255.367 47.877 256.826 42.8688 256.096 40.4779Z"
        fill="currentColor" />
      <path
        d="M172.661 49.8912C171.864 49.9572 171.714 50.0122 170.968 49.7879C171.319 48.7354 171.059 41.8926 171.026 40.5195C171.436 40.1063 171.63 40.2603 172.423 40.239L172.634 40.6951C172.659 41.8164 172.624 43.7567 172.913 44.762L172.913 45.2209C172.475 45.8113 172.666 48.5995 172.702 49.5082L172.661 49.8912Z"
        fill="currentColor" />
      <path
        d="M208.258 42.6928C208.241 41.6124 208.158 41.3249 207.715 40.3404C210.769 39.174 211.29 44.5935 212.787 46.1916L213.23 46.487C212.856 47.1419 212.431 48.2482 212.122 48.9766C211.665 48.0204 209.417 43.0051 208.866 42.6704L208.258 42.6928Z"
        fill="currentColor" />
      <path
        d="M221.156 40.1946C222.546 40.1844 223.633 40.0205 224.647 41.1268C226.461 43.1072 225.731 44.9667 223.118 45.2346L222.878 44.9977C224.176 42.384 224.543 41.2215 221.139 40.5171L221.156 40.1946Z"
        fill="currentColor" />
      <path
        d="M194.018 59.6054L194.135 60.7738C194.449 60.7694 194.278 60.7926 194.644 60.6728C194.301 62.9832 194.668 66.7735 194.953 69.1138C194.431 69.3664 194.211 69.2564 193.569 69.2163C193.461 68.2844 193.9 60.7309 194.018 59.6054Z"
        fill="currentColor" />
      <path
        d="M195.762 47.4142C192.432 47.2621 193.093 46.8508 191.705 49.8868L191.093 49.9893L190.852 49.7776C191.949 47.4974 192.685 45.1175 193.521 42.7218L194.178 43.1909C193.558 44.5404 193.229 45.4263 192.751 46.8371L195.501 46.8759L195.762 47.4142Z"
        fill="currentColor" />
      <path
        d="M266.082 47.3957C265.202 47.3663 264.365 47.3553 263.485 47.3565C262.599 47.879 262.221 49.1345 261.645 50.24L261.461 49.8912C261.646 48.0345 262.978 45.0335 263.699 43.1961L264.483 43.3246C263.697 44.5601 263.476 45.4424 263.028 46.8343C263.892 46.8717 264.956 46.8854 265.798 46.9773L266.082 47.3957Z"
        fill="currentColor" />
      <path
        d="M243.715 41.044C243.782 41.2243 244.007 41.8694 244.081 41.9967C244.38 43.2872 244.176 47.5525 244.367 49.131C244.439 49.7281 244.178 49.9041 243.835 50.2145L244.17 50.0294L243.69 50.0931C243.381 49.3828 243.66 42.3659 243.715 41.044Z"
        fill="currentColor" />
      <path
        d="M208.258 42.6928L208.867 42.6704C208.79 44.4033 209.353 48.8678 208.494 50L208.171 49.9477C208.387 48.238 208.213 44.652 208.258 42.6928Z"
        fill="currentColor" />
      <path
        d="M256.096 40.4779C255.185 40.5981 253.892 40.8727 253.058 40.6445C254.284 39.8034 259.529 39.9742 261.054 40.2771L261.197 40.637L261.212 40.3172L261.382 40.6099C260.347 40.945 259.055 40.6944 257.972 40.4767C257.414 40.2508 256.662 40.3506 256.096 40.4779Z"
        fill="currentColor" />
      <path
        d="M177.932 68.6627L178.335 69.6649C177.932 70.9861 176.283 72.6628 174.826 72.3474C174.474 71.7164 174.57 71.9541 174.705 71.08C176.949 71.1641 177.203 71.0474 177.932 68.6627Z"
        fill="currentColor" />
      <path
        d="M179.515 65.4852C180.31 63.9731 180.495 63.4502 181.007 61.8085L182.061 61.6741C182.043 62.3604 180.704 64.555 180.278 65.5886L179.515 65.4852Z"
        fill="currentColor" />
      <path
        d="M236.836 40.1499C238.227 39.9833 239.513 39.821 240.859 40.2434L241.232 40.602C240.541 41.0672 237.76 40.7026 236.911 40.4669L237.374 40.4033L236.836 40.1499Z"
        fill="currentColor" />
      <path
        d="M172.423 40.239C174.462 40.0398 175.326 39.8493 177.312 40.4229L177.494 40.6464C175.934 40.91 174.377 40.5631 172.634 40.6951L172.423 40.239Z"
        fill="currentColor" />
      <path
        d="M236.833 49.5379C237.998 49.4099 240.145 49.1356 241.209 49.4448C239.879 50.1759 238.275 49.9304 236.799 50.073C236.975 49.8121 236.914 49.9803 236.833 49.5379Z"
        fill="currentColor" />
      <path
        d="M198.793 63.4633C199.326 62.2941 199.937 60.3927 200.48 59.0617L200.864 59.8541C200.141 61.1619 199.867 62.4917 199.301 63.8797L198.793 63.4633Z"
        fill="currentColor" />
      <path
        d="M236.938 44.8237C238.073 44.6826 239.238 44.4285 240.272 44.8523C239.718 45.6777 237.769 45.4035 236.822 45.3654L236.938 44.8237Z"
        fill="currentColor" />
      <path
        d="M172.702 49.5081C174.038 49.4264 175.995 49.2087 177.231 49.5132L177.105 49.7033C175.29 50.0526 174.533 49.9779 172.661 49.8911L172.702 49.5081Z"
        fill="currentColor" />
      <path
        d="M212.788 46.1916C213.472 45.0924 214.383 42.861 214.931 41.6038L215.478 41.8054L213.231 46.4871L212.788 46.1916Z"
        fill="currentColor" />
      <path
        d="M184.417 49.4084C185.397 49.3903 188.133 49.2308 188.893 49.6064L188.895 49.5969L188.449 49.5031C187.818 50.0869 185.545 49.9623 184.61 49.9604L184.417 49.4084Z"
        fill="currentColor" />
      <path
        d="M172.913 44.762C174.1 44.6897 175.204 44.4815 176.247 44.9592L176.174 45.228C175.061 45.5902 174.068 45.369 172.913 45.2209L172.913 44.762Z"
        fill="currentColor" />
      <path
        d="M230.614 63.7791C231.253 62.9129 231.691 62.1503 232.605 61.6188C233.332 61.5701 233.026 61.4656 233.57 61.8859C232.916 62.6701 231.946 62.401 231.452 64.0915L230.614 63.7791Z"
        fill="currentColor" />
    </g>
  </g>
  <defs>
    <clipPath id="clip0_1_2">
      <rect width="300" height="74" fill="white" />
    </clipPath>
  </defs>
</svg>