<?xml version="1.0" standalone="no"?>
<!DOCTYPE svg PUBLIC "-//W3C//DTD SVG 20010904//EN"
 "http://www.w3.org/TR/2001/REC-SVG-20010904/DTD/svg10.dtd">
<svg version="1.0" xmlns="http://www.w3.org/2000/svg"
 width="1170.000000pt" height="741.000000pt" viewBox="0 0 1170.000000 741.000000"
 preserveAspectRatio="xMidYMid meet">

<g transform="translate(0.000000,741.000000) scale(0.100000,-0.100000)"
fill="#000000" stroke="none">
<path d="M8539 6986 c12 -18 21 -41 21 -51 0 -10 11 -33 26 -52 14 -18 22 -38
19 -43 -7 -12 10 -93 34 -160 21 -58 23 -470 3 -600 -35 -225 -137 -525 -237
-696 l-25 -42 -88 28 c-49 15 -107 31 -130 35 l-41 7 1 176 c1 188 -8 276 -48
437 -30 122 -64 194 -110 234 -29 26 -43 31 -85 31 -55 0 -129 -32 -166 -72
-53 -57 -99 -213 -63 -213 10 0 17 15 22 47 11 84 51 154 105 188 86 55 125
52 189 -14 83 -87 131 -292 141 -610 l6 -189 -44 7 c-55 9 -63 17 -83 86 -33
118 -148 320 -182 320 -33 0 -59 -131 -34 -170 7 -10 10 6 10 55 1 120 24 125
88 18 45 -74 101 -207 109 -258 l5 -33 -73 -12 c-52 -8 -108 -28 -189 -67
-102 -49 -124 -64 -196 -138 -45 -46 -98 -111 -119 -145 -35 -58 -37 -64 -26
-100 6 -20 11 -45 11 -55 0 -18 62 -119 80 -130 9 -6 40 84 40 118 0 24 53 77
77 77 31 0 64 -30 84 -77 16 -37 22 -43 39 -38 12 4 20 2 20 -5 0 -19 53 -59
108 -80 33 -13 77 -20 117 -20 55 0 65 -3 65 -17 0 -29 -20 -94 -47 -155 -22
-49 -30 -58 -51 -58 -24 0 -24 -1 -8 -13 17 -13 16 -17 -19 -88 -30 -58 -98
-170 -122 -198 -2 -3 -15 6 -29 20 l-25 24 23 20 c42 36 58 68 58 114 0 37 -5
49 -34 76 -23 21 -37 46 -42 71 -9 51 -23 79 -35 67 -5 -5 -5 -23 1 -43 6 -19
10 -39 10 -45 0 -6 -54 -9 -147 -8 -99 2 -141 -1 -126 -7 12 -5 25 -19 28 -32
3 -13 4 -104 3 -202 -2 -130 -6 -180 -15 -183 -7 -3 -27 17 -45 43 -18 26 -48
67 -65 91 -32 42 -33 46 -33 144 0 93 2 102 25 124 l24 25 -102 0 c-81 -1 -98
-3 -82 -12 31 -18 35 -28 35 -112 0 -77 0 -78 -23 -72 -38 9 -53 -13 -71 -104
-9 -47 -21 -103 -27 -125 -26 -102 -23 -115 37 -140 43 -18 81 -77 96 -148 15
-70 4 -96 -52 -132 -66 -42 -70 -42 -70 -2 0 36 -32 150 -50 177 -7 10 -8 0
-3 -34 7 -57 -6 -57 -36 2 -11 20 -38 61 -60 91 -22 29 -42 58 -43 63 -2 5
-38 18 -81 29 -43 11 -101 30 -130 43 l-52 24 126 1 126 1 11 51 c17 71 15 79
-9 41 -29 -45 -67 -62 -139 -62 l-61 0 3 88 3 87 36 3 c47 4 87 -13 99 -40 6
-17 9 -3 9 52 1 67 -1 72 -12 50 -11 -22 -20 -25 -75 -28 l-63 -3 3 88 3 88
40 3 c68 6 104 -6 126 -41 l20 -32 -3 55 c-2 30 -6 54 -10 53 -5 -2 -81 -3
-170 -3 -150 0 -161 -1 -140 -16 21 -15 22 -20 22 -213 l0 -198 -74 21 c-67
18 -73 22 -61 36 26 29 45 89 45 143 0 96 -42 161 -128 199 -40 18 -72 22
-210 26 l-164 5 26 -26 c26 -26 26 -27 26 -196 0 -93 -3 -177 -6 -185 -6 -16
-144 -86 -170 -86 -7 0 -54 9 -104 21 l-92 21 32 33 c23 24 34 45 37 77 8 68
-13 98 -112 159 -93 57 -116 80 -108 109 8 31 31 43 80 43 41 0 50 -4 75 -33
l28 -34 0 45 0 46 -65 7 c-116 12 -186 -23 -201 -100 -11 -59 17 -100 108
-159 42 -28 86 -59 98 -70 27 -25 23 -62 -12 -88 -24 -18 -31 -18 -78 -7 -60
14 -88 38 -97 81 -7 34 -23 21 -23 -19 0 -20 -4 -23 -32 -20 -29 3 -33 6 -29
28 l3 25 -18 -23 c-18 -21 -22 -21 -89 -12 -124 19 -116 14 -113 68 3 46 4 47
39 50 47 4 87 -13 99 -40 6 -17 9 -6 9 47 1 66 0 68 -15 47 -13 -19 -24 -22
-75 -22 l-60 0 3 88 3 87 51 3 c67 4 102 -11 119 -50 15 -33 15 -33 12 27 -1
33 -5 59 -9 58 -5 -2 -81 -3 -170 -3 -150 0 -161 -1 -140 -16 21 -14 22 -22
22 -161 l0 -146 -42 7 c-24 4 -63 10 -88 13 -29 3 -55 15 -72 31 l-28 26 28
13 c56 27 81 121 46 171 -32 47 -69 56 -229 59 -82 1 -143 0 -135 -3 34 -14
40 -37 40 -155 l0 -116 -31 -7 c-68 -13 -69 -13 -69 63 0 61 -4 74 -32 117
-49 72 -122 107 -225 107 -180 0 -269 -87 -261 -257 l3 -81 -27 -3 c-18 -2
-28 1 -28 9 0 8 -5 6 -13 -4 -10 -15 -27 -17 -107 -15 l-95 3 -3 152 c-2 142
-1 154 18 173 l20 20 -96 0 c-93 0 -96 -1 -75 -17 21 -17 22 -25 19 -172 l-3
-153 -45 -15 c-25 -8 -58 -25 -75 -38 -47 -35 -89 -54 -204 -92 -58 -19 -162
-61 -231 -93 -120 -56 -245 -101 -320 -114 l-35 -6 30 14 c17 8 69 33 118 55
48 22 87 44 87 50 0 12 -26 4 -102 -35 -92 -47 -177 -74 -292 -94 -61 -11
-145 -26 -186 -34 -279 -54 -746 -47 -987 14 -92 24 -104 25 -97 5 4 -10 0
-15 -12 -15 -36 1 -153 29 -183 45 -36 18 -41 5 -10 -24 47 -44 102 -58 419
-110 190 -30 698 -32 875 -3 28 4 64 5 81 2 20 -5 72 3 143 20 61 15 111 25
111 23 0 -3 -32 -38 -72 -79 -111 -114 -247 -313 -236 -346 2 -6 18 13 35 43
106 189 336 413 449 440 80 18 98 13 156 -43 62 -61 202 -140 388 -221 274
-119 550 -191 946 -246 427 -60 479 -63 952 -65 342 -1 434 2 441 12 9 14 37
-4 104 -67 43 -40 76 -89 42 -61 -17 14 -18 13 -11 -5 4 -11 9 -26 10 -32 1
-7 11 -20 22 -28 10 -8 14 -15 7 -15 -18 0 -43 -29 -43 -50 0 -10 9 -28 20
-41 l20 -24 -17 31 c-40 74 8 87 316 86 129 -1 232 0 230 2 -5 5 -269 24 -424
30 -118 6 -105 4 -105 15 0 24 84 41 203 42 119 2 121 2 52 10 -93 12 -113 32
-25 25 36 -3 124 -10 195 -16 72 -5 198 -13 280 -17 l150 -8 -2 -35 c-2 -27
-12 -43 -45 -70 -23 -19 -71 -64 -107 -99 -81 -77 -199 -157 -265 -176 -93
-28 -208 -39 -287 -27 -40 6 -75 9 -77 7 -9 -9 80 -26 169 -31 l95 -7 38 -54
c70 -100 236 -263 268 -263 5 0 -12 17 -39 39 -64 51 -93 84 -137 154 -21 32
-41 55 -46 52 -12 -7 -53 33 -45 45 3 4 -1 10 -7 13 -10 3 -10 8 -2 17 16 16
49 -2 68 -38 19 -34 74 -92 88 -92 13 0 203 -185 261 -255 l42 -49 -63 52
c-35 29 -66 52 -70 52 -4 0 28 -33 70 -73 117 -109 256 -306 333 -472 41 -87
94 -240 110 -312 3 -17 12 -34 20 -37 15 -6 35 -66 35 -109 0 -16 4 -26 10
-22 20 13 9 97 -29 217 -64 203 -150 393 -235 523 -25 38 -46 75 -46 82 0 7
-43 63 -95 123 -53 61 -112 136 -132 168 -38 59 -145 193 -182 226 -23 21 -28
56 -8 56 43 0 272 137 339 204 31 30 57 45 58 34 1 -2 5 -46 9 -98 14 -146 56
-244 117 -272 41 -19 39 0 -3 39 -51 48 -82 130 -90 238 -5 78 -5 83 21 111
42 46 77 104 63 104 -32 0 -36 22 -12 69 13 25 30 55 38 66 15 19 15 18 21
-15 3 -19 7 -71 11 -115 7 -101 21 -156 39 -149 14 5 108 -92 130 -135 39 -77
27 -90 -38 -41 -22 17 -41 28 -43 26 -8 -7 10 -36 22 -36 20 0 75 -50 75 -68
0 -12 -5 -10 -25 8 -48 45 -25 2 33 -59 49 -54 63 -63 100 -68 33 -4 51 -15
80 -44 40 -43 49 -45 163 -32 55 6 59 8 29 13 -81 12 -19 77 64 67 23 -3 50
-8 61 -12 17 -6 17 -5 -3 9 -12 10 -20 21 -17 26 3 4 -13 11 -35 15 -22 4 -50
16 -62 27 -13 11 -17 17 -10 13 6 -3 12 0 12 7 0 7 -19 21 -43 31 l-42 19 57
15 c53 13 59 13 95 -5 43 -23 113 -89 113 -108 0 -7 -9 -10 -22 -8 -13 3 1 -7
31 -21 51 -24 103 -36 73 -17 -7 5 -10 16 -6 25 9 24 -39 119 -88 174 -23 26
-34 41 -24 33 15 -11 20 -12 23 -2 7 19 23 15 77 -22 50 -34 52 -34 118 -26
37 5 78 16 90 24 13 8 43 20 68 26 38 9 45 15 47 37 1 18 -2 22 -10 14 -6 -6
-19 -11 -29 -11 -10 0 -18 -6 -18 -13 0 -15 -41 -37 -67 -37 -11 0 -14 8 -11
30 3 16 1 30 -4 30 -4 0 -8 -16 -8 -35 0 -40 -3 -41 -56 -19 l-39 16 24 -26
c30 -32 13 -34 -26 -3 -57 46 -67 50 -34 14 48 -51 21 -48 -63 8 -86 56 -169
84 -197 67 -29 -19 -57 1 -85 61 -27 59 -31 53 -9 -19 9 -32 28 -63 55 -89 22
-21 40 -42 40 -46 0 -3 -18 -14 -40 -24 -58 -26 -117 -25 -164 4 -50 31 -120
127 -148 203 -26 72 -37 61 -13 -13 9 -27 15 -53 12 -56 -8 -8 -31 43 -62 137
-45 137 -83 228 -121 287 -19 30 -34 62 -32 71 4 21 68 40 135 41 50 1 57 -2
120 -55 63 -52 65 -53 26 -13 -24 25 -43 48 -43 53 0 12 82 -37 114 -70 17
-16 22 -20 12 -7 -31 36 -6 27 65 -25 94 -68 187 -114 317 -157 75 -25 126
-47 148 -67 29 -26 34 -27 34 -12 0 19 -96 127 -121 137 -12 5 -11 7 1 16 12
8 13 14 3 30 -14 22 -11 26 32 35 32 7 151 94 141 103 -2 3 -20 -2 -38 -12
-55 -28 -127 -39 -245 -38 -62 0 -113 -1 -113 -3 0 -2 27 -17 60 -34 33 -17
60 -33 60 -36 0 -3 -16 -2 -35 2 -42 7 -48 -10 -10 -28 31 -14 33 -32 3 -23
-51 15 -85 44 -119 100 -23 38 -51 69 -78 86 -51 31 -60 44 -53 71 4 18 55 48
82 48 17 0 11 -18 -7 -23 -10 -2 15 -6 56 -8 82 -4 95 5 70 49 -29 53 -103 51
-184 -3 -20 -15 -39 -25 -40 -23 -2 2 13 21 33 43 35 38 38 39 122 45 345 24
639 -76 878 -299 20 -18 54 -40 76 -47 22 -8 48 -21 57 -30 9 -8 34 -18 55
-21 l39 -6 -25 28 c-70 77 -362 253 -515 310 -185 69 -231 77 -443 83 -198 4
-232 13 -146 38 95 28 425 75 619 88 l210 15 70 -25 c152 -54 235 -75 348 -86
131 -13 179 -6 253 37 38 23 104 118 90 132 -3 3 -13 -9 -23 -27 -38 -70 -55
-82 -149 -106 -64 -16 -93 -19 -102 -11 -10 8 6 20 68 50 125 61 160 108 160
215 0 37 4 45 33 62 48 29 73 26 86 -11 17 -48 14 -64 -14 -79 -26 -14 -29
-38 -4 -32 184 46 257 50 444 27 66 -9 201 -18 300 -21 147 -5 193 -3 248 10
202 48 755 34 964 -23 34 -10 54 2 35 21 -22 22 -230 48 -427 54 -274 8 -285
12 -101 44 100 17 131 18 214 10 114 -12 212 -35 265 -62 21 -10 44 -17 50
-15 31 12 -263 120 -463 171 -52 14 -111 29 -130 35 -109 31 -270 64 -309 64
-168 -2 -304 -29 -594 -117 -82 -25 -187 -51 -235 -57 -87 -12 -218 -7 -233 8
-5 5 -4 25 1 45 13 45 35 52 132 38 64 -10 84 -8 165 11 106 26 117 38 16 18
-39 -8 -121 -13 -192 -12 -116 2 -125 3 -150 26 -14 13 -46 34 -71 45 -56 27
-73 52 -80 122 -4 47 -9 57 -32 68 -16 7 -33 22 -39 33 -10 19 -8 20 13 14 49
-16 -22 31 -128 83 -62 31 -108 75 -125 120 -15 40 -2 37 25 -6 34 -54 87 -88
226 -146 63 -27 156 -66 206 -87 98 -42 146 -48 218 -27 67 19 62 25 -26 33
-106 9 -292 56 -373 94 -133 62 -263 170 -252 211 4 18 2 20 -16 14 -18 -5
-20 -4 -9 7 7 7 56 21 110 30 172 28 370 123 494 237 37 34 73 62 78 62 33 0
-18 -56 -105 -116 -74 -50 -47 -42 81 27 67 35 123 59 137 57 19 -3 16 -6 -20
-27 -75 -43 -39 -33 68 19 57 28 92 48 78 45 -14 -2 -59 -9 -98 -15 -40 -6
-82 -15 -94 -22 -12 -6 4 16 35 50 72 75 82 99 66 156 -9 34 -9 53 0 84 14 45
16 138 4 146 -5 3 -29 -23 -54 -57 -52 -69 -108 -127 -108 -109 0 6 22 33 48
59 54 54 112 135 112 155 0 7 -9 2 -20 -12 l-20 -25 15 44 c18 53 19 107 2
141 -18 35 -40 31 -48 -9 -4 -18 -13 -38 -21 -42 -42 -28 -127 -21 -135 12 -4
14 -14 19 -42 19 -40 0 -86 -36 -123 -95 -25 -42 -23 -21 4 26 12 21 19 42 15
46 -24 23 -108 -68 -127 -137 -11 -40 -41 -61 -108 -75 -51 -11 -32 -16 22 -6
60 11 60 -7 -2 -52 -34 -24 -55 -32 -105 -35 l-62 -4 23 25 c13 14 37 31 53
38 16 6 28 14 25 16 -10 11 -87 -41 -125 -84 -33 -36 -41 -52 -36 -71 8 -32
-8 -21 -46 30 -16 23 -29 50 -29 62 0 19 1 19 17 -4 10 -14 26 -34 37 -45 l19
-20 -8 20 c-16 43 -26 86 -33 142 -4 32 -12 56 -17 55 -6 -2 -8 -9 -7 -15 2
-7 7 -34 12 -62 9 -55 4 -77 -6 -26 -9 45 -21 47 -33 6 -5 -20 -23 -51 -40
-71 -30 -34 -39 -54 -23 -54 4 0 12 10 17 22 14 29 46 48 52 30 3 -8 28 -41
57 -73 28 -33 65 -83 83 -110 34 -55 53 -131 34 -137 -6 -2 -11 -18 -11 -35
-1 -18 -10 -48 -20 -67 l-20 -35 5 65 c3 36 8 81 10 101 6 46 -18 78 -91 125
-30 19 -63 44 -75 57 -13 13 -20 16 -17 7 2 -8 27 -32 53 -52 45 -34 50 -41
52 -83 2 -34 0 -45 -11 -45 -8 0 -16 -6 -19 -12 -7 -18 -56 38 -122 139 -32
48 -76 99 -107 124 -29 23 -53 44 -53 48 0 3 19 40 43 82 98 176 201 520 238
789 16 123 19 582 3 649 -19 83 -91 161 -149 161 l-22 0 21 -34z m986 -1419
c-8 -20 -15 -50 -15 -66 0 -21 -14 -46 -50 -88 -27 -32 -66 -85 -85 -119 -34
-58 -80 -94 -119 -94 -22 0 -76 -56 -76 -79 0 -25 -26 -27 -54 -6 -11 8 -36
15 -56 15 -40 0 -67 -23 -89 -75 -18 -41 -100 -155 -112 -155 -5 0 2 17 16 37
14 21 25 43 25 50 0 13 -34 35 -42 27 -3 -2 -8 18 -12 46 -6 45 -4 54 19 81
14 17 25 34 25 39 0 5 3 17 7 27 12 32 -25 -5 -43 -44 -9 -18 -19 -32 -21 -29
-5 4 43 102 60 124 7 9 12 10 17 2 5 -8 15 1 28 22 11 18 35 47 52 63 l32 30
-6 -30 c-4 -16 3 -6 14 24 11 30 29 62 39 72 11 10 22 32 26 48 14 65 26 42
20 -41 l-5 -83 15 50 c9 28 22 73 30 102 13 43 21 53 47 62 41 14 40 14 28 -9
-12 -23 2 -27 20 -5 7 8 16 13 20 10 4 -3 13 2 20 10 13 16 40 19 78 9 17 -5
21 -11 17 -25 -8 -25 11 -24 25 1 12 23 38 26 46 6 3 -8 -11 -51 -30 -96 -20
-44 -36 -86 -36 -93 1 -16 30 22 42 55 5 15 20 34 34 43 23 15 36 43 13 30 -6
-4 1 16 16 45 29 58 44 63 20 7z m-1477 -155 c2 -7 19 -12 38 -12 50 0 177
-28 229 -50 107 -46 205 -131 220 -191 4 -15 33 -57 66 -93 65 -73 89 -113 89
-147 0 -18 -14 -8 -77 54 -85 85 -111 97 -210 97 -119 0 -257 -75 -303 -165
-25 -48 -60 -74 -104 -75 -15 0 -16 3 -6 15 7 8 18 15 24 15 7 0 21 7 32 15
17 13 16 14 -14 4 -18 -6 -51 -9 -72 -6 -21 3 -60 1 -86 -4 -57 -11 -124 -3
-124 15 0 24 58 94 120 145 34 28 58 51 54 51 -11 0 -72 -47 -151 -118 -40
-35 -76 -61 -82 -58 -17 11 1 45 46 87 56 51 51 61 -8 15 -24 -19 -45 -33 -47
-31 -2 2 5 19 17 38 25 40 111 116 173 153 26 16 33 23 18 19 -36 -10 -84 -40
-171 -107 -81 -62 -107 -74 -68 -31 l24 26 -36 -21 c-47 -29 -59 -28 -98 7
-18 16 -49 33 -69 38 l-37 9 59 62 c82 86 280 219 371 249 49 16 177 12 183
-5z m1482 -47 c-36 -38 -147 -115 -164 -115 -12 0 -12 0 89 84 86 71 133 90
75 31z m-24 -128 c-27 -58 -96 -120 -122 -110 -9 3 -14 -1 -14 -12 0 -27 -127
-145 -214 -200 -68 -42 -216 -105 -248 -105 -20 0 18 33 122 106 122 86 269
227 277 266 3 16 15 31 32 38 14 6 62 33 106 59 93 57 103 50 61 -42z m-229
-84 c-3 -3 -11 -2 -17 2 -9 6 -9 10 1 16 14 8 27 -7 16 -18z m-148 -69 c16
-36 2 -56 -82 -117 -114 -84 -118 -84 -52 -2 34 43 85 121 85 130 0 4 -4 3
-10 0 -5 -3 -10 -2 -10 4 0 5 6 11 13 14 22 7 44 -4 56 -29z m-369 -59 c-6
-15 -13 -26 -16 -23 -2 3 0 18 6 33 6 15 13 26 16 23 2 -3 0 -18 -6 -33z
m-235 -3 c49 -25 121 -100 141 -147 23 -56 16 -62 -16 -12 -34 54 -98 104
-145 113 -38 7 -138 -17 -210 -50 -67 -32 -163 -52 -178 -37 -26 26 82 117
172 146 65 21 184 15 236 -13z m441 -52 c-35 -54 -41 -51 -9 6 14 25 28 43 31
40 3 -3 -7 -24 -22 -46z m-419 -31 c36 -13 83 -58 83 -79 0 -27 -57 -49 -164
-65 -64 -9 -118 -24 -154 -41 -60 -29 -185 -146 -197 -183 -5 -18 -14 -21 -61
-21 -30 0 -54 3 -54 7 0 9 110 193 129 217 21 24 149 110 220 147 61 31 144
39 198 18z m-347 -84 c0 -12 -43 -25 -63 -19 -21 7 -21 7 -2 15 22 9 65 12 65
4z m-100 -70 c0 -12 -93 -166 -97 -161 -7 7 45 149 59 157 15 10 38 12 38 4z
m480 -4 c0 -18 -84 -81 -189 -142 -58 -34 -139 -84 -179 -111 -41 -28 -75 -48
-78 -46 -2 3 12 23 31 45 41 48 45 62 10 39 -43 -28 -27 -1 20 34 42 32 56 50
37 50 -5 0 -17 -7 -28 -15 -10 -8 -23 -15 -28 -15 -19 0 20 33 78 66 34 20 68
44 76 55 23 28 250 65 250 40z m-124 -170 c-58 -58 -59 -59 -112 -58 -30 1
-54 5 -54 9 0 8 191 107 210 108 8 0 -12 -27 -44 -59z m324 -101 c33 -66 60
-130 60 -144 0 -13 7 -30 17 -37 9 -8 22 -29 30 -47 7 -18 20 -35 28 -39 8 -3
15 -10 15 -15 0 -6 16 -28 36 -50 42 -47 41 -69 -6 -86 l-35 -12 43 6 c37 5
42 4 42 -14 0 -53 -65 -67 -283 -60 -94 3 -156 0 -182 -7 -22 -7 -80 -18 -130
-24 -206 -28 -472 -94 -745 -186 -73 -24 -137 -42 -142 -39 -16 10 -8 81 13
108 11 15 71 60 132 100 62 41 129 88 151 105 38 31 40 31 160 32 77 0 113 3
100 9 -21 8 -39 46 -26 54 4 2 31 1 61 -2 40 -3 55 -9 58 -23 11 -40 132 -62
214 -38 89 27 127 126 75 201 l-25 38 32 25 c48 36 108 59 117 45 8 -12 40 64
40 95 0 29 58 125 75 125 9 0 39 -48 75 -120z m-170 70 c0 -39 -39 -98 -111
-164 -39 -36 -76 -66 -81 -66 -14 0 -117 63 -118 72 0 3 26 22 58 42 l57 35
17 -22 18 -22 0 33 c0 29 7 37 62 72 69 45 98 51 98 20z m-515 -139 c-1 -95
-11 -131 -36 -131 -5 0 -9 42 -9 93 0 68 4 99 16 115 8 12 18 22 22 22 4 0 7
-45 7 -99z m-3814 58 c39 -27 62 -84 67 -165 l4 -72 -48 -5 c-27 -4 -93 -9
-146 -13 l-97 -6 -7 27 c-19 75 19 205 68 237 49 32 112 31 159 -3z m4069 22
c0 -8 -71 -61 -82 -61 -3 0 -4 9 -1 21 7 26 83 63 83 40z m-3581 -38 c19 -22
22 -34 18 -70 -5 -48 -30 -83 -58 -83 -21 0 -34 -16 -19 -25 5 -3 15 -15 20
-26 10 -17 7 -19 -25 -19 l-35 0 0 131 0 131 38 -6 c21 -4 47 -18 61 -33z
m1538 10 c61 -45 87 -145 64 -240 -20 -77 -30 -83 -138 -83 l-93 0 0 168 c0
93 3 172 8 176 15 16 131 1 159 -21z m1362 -10 c19 -22 22 -34 18 -70 -5 -47
-30 -83 -57 -83 -25 0 -32 -12 -16 -29 7 -9 23 -37 34 -63 19 -44 19 -48 4
-79 -20 -38 -43 -55 -66 -46 -14 6 -16 31 -16 208 l0 201 38 -6 c21 -4 47 -18
61 -33z m513 -26 c-7 -8 -9 -17 -6 -20 3 -3 3 -11 -1 -18 -6 -8 -10 -7 -17 5
-7 13 -5 23 8 37 19 21 34 18 16 -4z m769 -29 c7 -14 6 -18 -5 -18 -12 0 -37
48 -36 69 1 7 27 -27 41 -51z m-1001 -92 l0 -124 -55 -38 c-53 -36 -56 -37
-70 -18 -42 57 -43 54 40 183 43 67 79 121 81 121 2 0 4 -56 4 -124z m1060 20
c0 -6 -7 -2 -15 8 -8 11 -15 25 -15 30 0 6 7 2 15 -8 8 -11 15 -25 15 -30z
m-101 -17 c18 -11 31 -23 28 -26 -6 -5 -77 34 -77 43 0 9 16 3 49 -17z m-689
1 c0 -5 -4 -10 -9 -10 -5 0 -18 -3 -28 -7 -16 -6 -16 -5 -4 10 15 19 41 23 41
7z m-1036 -16 c12 -11 16 -35 16 -92 l-1 -77 -24 45 c-48 91 -42 175 9 124z
m1072 -9 c18 -13 16 -14 -20 -15 -33 0 -37 2 -26 15 15 19 21 19 46 0z m44
-33 c0 -12 -67 -42 -95 -42 -43 0 -34 24 14 37 57 14 81 15 81 5z m30 -31 c0
-14 -52 -49 -85 -57 -41 -10 -24 11 33 41 55 28 52 27 52 16z m40 -31 c-8 -5
-21 -10 -29 -10 -11 0 -10 5 4 20 13 15 22 17 29 10 8 -8 6 -14 -4 -20z m732
-17 c66 -19 100 -53 96 -95 -2 -17 -10 -34 -18 -38 -8 -4 -35 -17 -59 -29 -63
-33 -101 -43 -101 -27 0 8 15 19 33 26 73 27 74 29 24 29 -48 1 -50 3 -61 51
-3 14 -22 45 -43 69 l-37 44 58 -7 c32 -4 81 -14 108 -23z m-1765 -15 c-3 -8
-6 -5 -6 6 -1 11 2 17 5 13 3 -3 4 -12 1 -19z m1073 -2 c0 -33 -44 -66 -87
-66 -31 0 -100 27 -91 35 5 6 150 53 166 54 6 1 12 -10 12 -23z m-4443 -2 c-3
-3 -25 -7 -49 -10 l-43 -4 45 14 c43 12 60 12 47 0z m353 8 c0 -31 -64 -39
-175 -23 -78 12 -23 27 108 30 37 0 67 -3 67 -7z m240 -26 c0 -60 -37 -67
-146 -26 l-27 11 23 24 c20 22 32 25 87 25 l63 0 0 -34z m214 18 c9 -8 21 -25
27 -36 22 -42 64 -48 313 -48 144 0 236 4 238 10 5 16 520 -115 587 -149 9 -5
51 -17 94 -27 l78 -18 -6 -30 -6 -31 20 33 c12 18 21 39 21 47 0 8 16 19 38
24 20 6 60 17 87 25 l50 15 -56 -5 c-31 -3 -81 -12 -110 -19 -112 -30 -119 -6
-7 25 67 20 51 23 -47 11 -80 -11 -104 0 -35 15 l55 12 -60 1 c-33 1 -66 5
-74 10 -29 19 90 43 259 52 212 12 279 1 438 -76 126 -61 174 -91 249 -159 77
-70 103 -128 118 -271 4 -35 3 -37 -5 -12 -5 16 -14 35 -21 43 -22 27 -28 14
-12 -31 16 -47 13 -72 -10 -81 -16 -6 -100 75 -134 131 -14 22 -33 46 -42 54
-14 12 -13 13 12 9 53 -10 26 11 -40 31 -67 19 -252 35 -363 31 -57 -1 -60 7
-7 27 50 18 1 16 -62 -3 -29 -8 -72 -19 -95 -24 -40 -9 -39 -9 12 -5 65 5 148
-15 210 -51 25 -15 81 -61 124 -102 73 -70 78 -77 62 -89 -48 -35 -478 -151
-665 -179 l-102 -15 -64 63 c-35 35 -76 80 -90 101 -17 24 -37 40 -56 44 -17
3 -24 9 -17 13 7 5 -4 18 -32 38 -169 120 -219 161 -243 199 -37 59 -92 100
-166 124 -35 11 -101 38 -148 59 -64 28 -109 41 -176 48 -49 6 -146 25 -215
44 l-125 33 70 5 c45 3 62 7 48 12 -19 5 -23 13 -23 47 l0 41 44 0 c27 0 51
-6 60 -16z m244 -10 c18 -5 22 -13 20 -33 -5 -46 -73 -41 -108 9 l-21 30 43 0
c24 0 53 -3 66 -6z m5105 -1 c-7 -2 -21 -2 -30 0 -10 3 -4 5 12 5 17 0 24 -2
18 -5z m-2733 -43 c5 0 17 -15 27 -32 13 -25 18 -66 21 -165 2 -73 8 -130 13
-127 5 3 9 17 9 32 0 15 4 34 10 42 16 26 23 -16 11 -65 -15 -59 -14 -74 4
-51 14 18 15 17 15 -23 0 -60 -53 -158 -71 -130 -4 8 -12 1 -23 -18 -19 -38
-66 -59 -95 -43 -27 14 -26 36 1 102 21 48 23 72 26 248 1 107 2 212 2 233
l-1 38 21 -21 c11 -11 24 -20 30 -20z m299 14 c-15 -18 -22 -13 -13 10 3 9 10
13 16 10 5 -3 4 -12 -3 -20z m-4129 2 c0 -15 -12 -20 -72 -31 -62 -10 -48 20
16 36 48 11 56 10 56 -5z m1698 -11 c3 -3 -20 -5 -51 -5 -51 0 -67 7 -52 22 6
6 95 -9 103 -17z m4931 9 c10 -9 -57 -25 -112 -27 -64 -2 -88 15 -45 33 20 8
146 4 157 -6z m-2249 -14 c-7 -12 -21 -20 -38 -20 l-27 0 30 20 c38 25 49 25
35 0z m-3861 -16 c60 -24 74 -26 154 -20 86 6 90 5 255 -48 92 -30 212 -68
267 -85 57 -17 128 -47 165 -70 36 -23 92 -55 125 -73 61 -33 141 -108 250
-233 63 -73 166 -159 278 -234 64 -42 67 -46 45 -54 -13 -4 -187 -11 -388 -14
-329 -5 -386 -4 -580 16 -586 60 -817 106 -1142 227 -237 88 -358 155 -465
257 -52 50 -58 67 -24 67 11 0 27 20 43 54 l27 55 128 41 c228 74 358 100 514
100 128 0 137 1 142 20 8 32 120 28 206 -6z m3694 -13 c4 -4 -14 -21 -40 -37
-26 -17 -61 -39 -78 -50 -33 -22 -31 -16 23 59 30 42 38 48 61 42 14 -4 30
-10 34 -14z m2802 -1 c-11 -5 -56 -10 -100 -11 -62 -1 -71 -3 -40 -8 37 -6 38
-7 15 -14 -54 -17 -392 -34 -370 -18 11 8 -6 11 -65 12 -70 1 -75 2 -40 10 22
4 69 8 105 9 36 0 88 7 115 15 56 15 416 20 380 5z m-4570 -10 c-27 -12 -43
-12 -25 0 8 5 22 9 30 9 10 0 8 -3 -5 -9z m630 -15 c32 -14 55 -28 52 -31 -3
-3 -31 8 -63 25 -72 37 -66 40 11 6z m522 19 c-3 -3 -12 -4 -19 -1 -8 3 -5 6
6 6 11 1 17 -2 13 -5z m166 -89 c12 -129 4 -231 -23 -288 -24 -50 -47 -75 -35
-38 7 25 -10 112 -31 152 -7 15 -16 78 -20 148 l-7 122 54 -3 54 -3 8 -90z
m277 88 c0 -12 -58 -111 -69 -117 -9 -6 -71 96 -71 116 0 4 32 8 70 8 39 0 70
-3 70 -7z m-1641 -17 c-2 -2 -15 -9 -29 -15 -24 -11 -24 -11 -6 3 16 13 49 24
35 12z m1231 -10 c0 -20 -12 -26 -40 -19 -22 6 -22 7 -5 20 24 17 45 17 45 -1z
m3413 -23 c-7 -2 -19 -2 -25 0 -7 3 -2 5 12 5 14 0 19 -2 13 -5z m-5636 -69
c17 -13 55 -47 83 -74 60 -58 76 -66 31 -15 -17 20 -31 40 -31 45 0 5 -18 19
-40 31 -36 20 -52 40 -32 39 18 -1 180 -91 230 -129 45 -33 89 -99 113 -168
22 -66 69 -152 111 -205 16 -21 26 -38 21 -38 -22 0 -141 121 -210 214 -96
128 -125 159 -134 145 -11 -19 -169 70 -169 95 0 11 -25 24 -110 57 -39 16
-41 18 -17 19 15 0 39 -8 54 -17 25 -17 26 -17 15 4 -6 11 -8 23 -4 27 11 11
54 -4 89 -30z m5136 29 c-18 -2 -48 -2 -65 0 -18 2 -4 4 32 4 36 0 50 -2 33
-4z m310 0 c-7 -2 -21 -2 -30 0 -10 3 -4 5 12 5 17 0 24 -2 18 -5z m-1349 -35
c38 -142 -116 -248 -360 -248 -69 0 -117 5 -137 14 -18 8 -57 21 -87 31 -30 9
-77 29 -105 44 -48 27 -54 28 -162 23 -124 -5 -290 6 -277 18 14 13 172 60
270 80 93 19 421 46 432 36 10 -11 -30 -35 -110 -66 -85 -33 -157 -39 -198
-15 -29 17 -70 20 -70 5 0 -5 6 -10 14 -10 7 0 49 -18 92 -39 92 -46 172 -64
218 -48 17 5 63 32 101 58 51 36 82 50 115 53 25 2 88 23 140 45 52 22 100 41
106 41 7 0 14 -10 18 -22z m-2158 -38 c12 0 29 -11 38 -25 22 -34 20 -43 -4
-17 -12 12 -27 22 -34 22 -7 0 -21 10 -32 23 -10 12 -12 16 -4 10 8 -7 24 -13
36 -13z m-1611 -80 c5 8 16 5 33 -6 51 -33 75 -76 109 -193 13 -47 44 -123 68
-169 34 -64 40 -80 24 -72 -52 28 -157 191 -207 322 -17 43 -39 89 -51 104
-26 33 -27 57 -1 26 12 -14 21 -18 25 -12z m3330 -15 c-36 -28 -135 -46 -135
-26 0 12 57 31 74 25 8 -3 17 -1 21 5 3 6 18 11 33 11 26 -1 26 -1 7 -15z
m-6062 -15 c-39 -16 -192 -41 -226 -38 -29 3 176 45 228 46 18 1 18 0 -2 -8z
m4059 -99 c15 -5 56 -28 91 -51 35 -22 93 -53 128 -69 64 -29 109 -63 109 -82
0 -20 -100 29 -175 86 -17 12 -66 40 -110 63 -44 22 -91 49 -105 61 l-25 20
30 -8 c17 -5 42 -14 57 -20z m128 9 c25 -10 44 -23 43 -28 -1 -5 14 -24 33
-42 70 -63 5 -52 -84 15 -93 70 -89 96 8 55z m484 -37 c-7 -42 -25 -95 -31
-90 -4 4 9 66 22 105 8 22 14 12 9 -15z m-1689 -73 c31 -16 34 -19 13 -15 -35
7 -78 23 -78 30 0 10 26 4 65 -15z m70 -101 c43 -40 247 -329 232 -329 -2 0
-26 28 -53 63 -27 34 -81 98 -119 142 -89 100 -145 170 -145 179 0 12 42 -15
85 -55z m1535 53 c0 -8 -43 -32 -55 -32 -15 0 -1 22 18 30 29 11 37 12 37 2z
m40 -6 c0 -2 -8 -10 -17 -17 -16 -13 -17 -12 -4 4 13 16 21 21 21 13z m-336
-140 c20 -23 36 -48 36 -54 0 -13 -37 -35 -51 -30 -8 3 -59 111 -59 126 0 1 9
2 19 2 11 0 36 -19 55 -44z m539 17 c51 -18 57 -36 13 -41 -30 -4 -136 43
-136 60 0 13 56 4 123 -19z m-619 -35 c31 -62 32 -74 7 -87 -32 -18 -220 -24
-329 -12 -83 10 -107 10 -129 -1 -16 -8 -27 -20 -26 -28 3 -16 -57 -45 -117
-56 -19 -4 -45 -14 -57 -21 -13 -9 -40 -13 -69 -11 -44 3 -51 7 -75 43 -15 22
-25 43 -21 46 9 9 356 75 462 89 123 15 182 29 200 45 18 16 86 43 112 44 10
1 26 -19 42 -51z m716 -44 c0 -7 12 -20 28 -28 40 -22 4 -19 -47 4 -35 16 -41
23 -32 34 14 17 51 9 51 -10z m-420 -94 c34 -66 39 -90 16 -70 -16 12 -49 78
-61 119 -12 42 13 13 45 -49z m-132 18 c2 -8 -15 -37 -38 -64 -22 -27 -40 -52
-40 -56 0 -5 -4 -8 -9 -8 -14 0 4 54 34 106 26 44 47 53 53 22z m-209 -12 c-6
-6 -312 -26 -317 -21 -2 2 -1 8 3 14 4 7 63 11 162 11 86 0 154 -2 152 -4z
m945 -56 c15 -15 -10 -12 -44 5 -17 9 -30 17 -30 20 0 7 63 -14 74 -25z m-967
4 c-16 -9 -59 -22 -95 -29 l-67 -13 50 -2 50 -3 -60 -10 c-44 -7 -88 -7 -165
3 -58 7 -136 14 -175 17 -38 3 -74 10 -80 15 -7 7 0 9 23 4 42 -7 427 11 467
23 17 5 41 9 55 10 l25 0 -28 -15z m368 -67 c4 -14 14 -32 23 -39 14 -12 14
-10 3 10 -17 32 -7 38 18 13 31 -31 65 -172 85 -351 l6 -55 -16 40 c-8 22 -21
51 -29 65 -7 14 -15 43 -19 65 -15 87 -18 98 -26 84 -5 -7 -6 -27 -4 -44 l5
-30 -20 24 c-12 13 -21 29 -21 36 0 7 -11 47 -25 89 -24 74 -32 136 -18 149 8
9 30 -23 38 -56z m-297 -8 c-18 -12 -23 8 -6 28 12 15 13 15 16 -2 2 -10 -2
-21 -10 -26z m92 -24 c0 -10 -60 -35 -85 -35 -29 0 -35 26 -7 33 24 6 92 8 92
2z m15 -52 c-4 -10 -10 -26 -12 -35 -4 -14 -16 -18 -48 -18 -47 0 -77 22 -57
42 7 7 12 10 12 7 0 -3 21 0 48 7 63 17 65 17 57 -3z m-240 -190 c-71 -61
-277 -154 -342 -153 -10 0 11 11 47 24 98 35 190 84 237 127 39 36 54 44 76
40 4 0 7 5 8 12 0 8 3 7 6 -3 4 -8 -9 -27 -32 -47z m631 -76 c15 -29 51 -88
82 -131 30 -44 47 -76 38 -73 -9 4 -23 10 -33 14 -12 5 -14 3 -8 -8 5 -8 -8 3
-28 23 -21 20 -37 44 -37 52 0 8 -4 18 -10 21 -5 3 -10 16 -10 28 0 18 2 19
10 7 6 -9 10 -10 10 -3 0 6 -5 15 -11 18 -10 7 -25 38 -39 88 -13 42 7 23 36
-36z m-27 -92 l0 -20 -9 20 c-5 11 -9 27 -9 35 -1 13 0 13 9 0 5 -8 9 -24 9
-35z m181 -26 c33 -34 59 -64 56 -66 -3 -3 -9 -2 -14 1 -14 8 -115 126 -109
126 3 0 33 -28 67 -61z m-1050 0 c0 -6 -4 -7 -10 -4 -5 3 -10 11 -10 16 0 6 5
7 10 4 6 -3 10 -11 10 -16z m1045 -37 c14 -20 22 -38 20 -41 -7 -7 -38 24 -58
58 -16 27 -16 30 -2 25 9 -4 27 -23 40 -42z m-634 -498 c17 -25 29 -47 27 -49
-1 -1 -21 22 -42 53 -21 30 -34 52 -28 48 7 -4 26 -27 43 -52z"/>
<path d="M8888 4073 c6 -2 18 -2 25 0 6 3 1 5 -13 5 -14 0 -19 -2 -12 -5z"/>
<path d="M6250 3850 c-111 -5 -113 -6 -60 -14 l55 -9 -47 -20 c-56 -23 -64
-48 -15 -46 17 1 24 3 15 6 -53 14 19 41 182 69 152 26 135 27 -130 14z"/>
<path d="M6623 2899 c-18 -12 -33 -23 -33 -25 0 -7 58 25 65 36 9 14 5 13 -32
-11z"/>
<path d="M9843 5036 c-29 -14 -53 -27 -53 -29 0 -2 27 5 60 16 33 11 63 17 67
14 11 -12 -17 -34 -59 -46 -64 -19 -429 -164 -424 -168 2 -3 60 13 128 35 221
72 318 95 400 96 71 1 100 -6 85 -20 -3 -3 -59 -18 -124 -34 -65 -16 -129 -33
-143 -39 -25 -10 -25 -10 7 -10 79 -2 35 -31 -134 -91 -81 -29 -182 -51 -338
-74 l-80 -12 75 -8 c41 -4 109 -14 150 -22 95 -18 130 -18 156 0 11 8 36 15
55 14 48 -1 107 16 91 25 -21 14 -13 27 16 27 36 0 56 16 77 61 25 56 106 89
215 89 64 0 88 -4 102 -17 23 -20 24 -3 2 38 -16 32 -106 80 -175 94 -69 14
-71 15 -67 48 4 42 -20 45 -89 13z m292 -136 c4 -6 -13 -10 -43 -10 -27 0 -64
-3 -81 -6 -33 -7 -45 11 -13 19 34 9 131 7 137 -3z"/>
<path d="M8825 4710 c-3 -6 -18 -7 -33 -4 -20 5 -24 4 -16 -5 6 -7 27 -9 59
-4 37 5 44 8 30 14 -28 11 -33 10 -40 -1z"/>
<path d="M1630 4600 c19 -19 20 -33 20 -238 0 -229 -3 -245 -45 -255 -11 -3
69 -5 177 -6 l197 -1 14 63 c8 34 12 64 9 67 -3 3 -7 0 -9 -7 -10 -28 -49 -66
-79 -79 -19 -8 -61 -14 -94 -14 l-60 0 0 229 c0 226 0 230 22 245 21 15 16 16
-75 16 l-97 0 20 -20z"/>
<path d="M2251 4540 c-6 -19 -51 -120 -99 -224 -75 -163 -91 -191 -117 -202
-28 -13 -26 -13 43 -14 66 0 72 2 58 15 -12 12 -13 22 -6 41 24 63 25 64 106
64 l75 0 21 -47 c20 -45 20 -47 2 -60 -15 -11 -2 -13 92 -12 83 0 103 3 82 10
-21 8 -39 36 -90 142 -35 73 -84 174 -109 227 l-46 94 -12 -34z m22 -227 c14
-34 23 -63 21 -65 -6 -7 -114 -1 -115 6 -3 16 55 136 62 129 4 -4 18 -36 32
-70z"/>
<path d="M2645 4545 c-48 -17 -72 -45 -81 -93 -10 -54 18 -99 96 -150 108 -71
130 -91 130 -117 0 -32 -44 -65 -87 -65 -63 0 -104 33 -123 99 -7 25 -8 24
-18 -13 -6 -22 -9 -50 -6 -62 11 -44 128 -68 215 -44 52 14 90 59 96 113 7 64
-13 95 -98 147 -98 61 -129 91 -122 120 8 29 62 52 103 44 17 -4 41 -20 55
-38 l25 -31 0 48 c0 45 -1 47 -29 47 -15 0 -48 2 -72 5 -26 3 -60 -1 -84 -10z"/>
<path d="M3281 4552 c-151 -2 -163 -4 -143 -18 21 -15 22 -21 22 -202 l0 -187
-68 -27 c-78 -33 -176 -87 -169 -95 3 -3 44 13 90 36 83 41 85 41 198 41 99 0
111 2 89 13 -24 12 -25 17 -25 102 l0 90 54 0 c44 -1 57 -5 72 -24 19 -23 19
-23 19 45 0 62 -2 67 -13 44 -11 -22 -20 -25 -75 -28 l-63 -3 3 88 3 88 57 3
c68 4 95 -9 113 -51 l14 -32 1 57 c0 31 -3 58 -7 60 -5 2 -82 2 -172 0z"/>
<path d="M9565 4548 c-11 -6 -33 -15 -50 -19 -28 -7 -28 -7 11 -8 26 -1 46 5
54 14 17 20 10 26 -15 13z"/>
<path d="M9045 4410 c3 -5 8 -10 11 -10 2 0 4 5 4 10 0 6 -5 10 -11 10 -5 0
-7 -4 -4 -10z"/>
<path d="M10138 4223 c17 -2 47 -2 65 0 17 2 3 4 -33 4 -36 0 -50 -2 -32 -4z"/>
<path d="M845 4210 c-4 -6 -6 -35 -6 -66 0 -92 82 -242 133 -242 13 0 41 -3
63 -7 l40 -8 -44 39 c-57 50 -114 138 -141 219 -22 66 -34 83 -45 65z"/>
<path d="M7935 3570 c-3 -5 2 -10 12 -10 10 0 29 -7 41 -16 29 -20 19 -34 -53
-75 -44 -25 -60 -29 -133 -29 -53 0 -81 -4 -77 -10 8 -13 101 -13 165 1 53 11
150 78 150 103 0 21 -94 54 -105 36z"/>
<path d="M8026 3460 c-10 -17 -16 -34 -13 -37 8 -7 40 44 35 57 -2 6 -12 -3
-22 -20z"/>
<path d="M7495 3200 c18 -33 69 -100 72 -96 3 2 -12 26 -32 53 -41 53 -52 66
-40 43z"/>
<path d="M7562 3198 c8 -24 178 -146 267 -191 79 -40 171 -68 306 -92 22 -4
34 -10 28 -12 -7 -3 -13 -9 -13 -14 0 -12 41 -11 60 1 24 15 1 29 -65 40 -69
12 -202 77 -208 102 -5 19 -20 26 -117 56 -36 11 -74 24 -85 28 -18 7 -18 6
-6 -9 19 -24 3 -21 -33 6 -80 61 -138 98 -134 85z"/>
<path d="M7629 3033 c12 -23 29 -38 37 -31 2 3 -8 15 -22 29 -25 23 -26 23
-15 2z"/>
<path d="M5813 2907 l-22 -23 51 -18 c53 -19 79 -15 34 5 -14 7 -26 15 -26 19
0 4 60 5 133 2 72 -2 130 -2 127 1 -3 3 -50 10 -105 16 -55 7 -116 13 -135 16
-27 3 -40 -1 -57 -18z"/>
<path d="M5700 2881 c0 -12 59 -55 66 -48 2 2 -11 16 -31 31 -19 15 -35 23
-35 17z"/>
<path d="M7040 2871 c0 -6 4 -13 10 -16 6 -3 7 1 4 9 -7 18 -14 21 -14 7z"/>
<path d="M7850 2846 c0 -2 8 -10 18 -17 15 -13 16 -12 3 4 -13 16 -21 21 -21
13z"/>
<path d="M7608 2523 c6 -2 18 -2 25 0 6 3 1 5 -13 5 -14 0 -19 -2 -12 -5z"/>
<path d="M7090 1355 c0 -28 -41 -99 -83 -142 -39 -40 -40 -43 -18 -43 59 0
137 100 125 160 -7 33 -24 51 -24 25z"/>
</g>
</svg>
